<?xml version="1.0" encoding="UTF-8" standalone="no"?>
<svg
   xmlns:dc="http://purl.org/dc/elements/1.1/"
   xmlns:cc="http://creativecommons.org/ns#"
   xmlns:rdf="http://www.w3.org/1999/02/22-rdf-syntax-ns#"
   xmlns:svg="http://www.w3.org/2000/svg"
   xmlns="http://www.w3.org/2000/svg"
   id="svg8"
   version="1.1"
   viewBox="0 0 26.458333 26.458332"
   height="100"
   width="100">
  <defs
     id="defs2" />
  <metadata
     id="metadata5">
    <rdf:RDF>
      <cc:Work
         rdf:about="">
        <dc:format>image/svg+xml</dc:format>
        <dc:type
           rdf:resource="http://purl.org/dc/dcmitype/StillImage" />
        <dc:title></dc:title>
      </cc:Work>
    </rdf:RDF>
  </metadata>
  <path
     style="fill:none;fill-rule:evenodd;stroke:none;stroke-width:1.32291663;stroke-linecap:butt;stroke-linejoin:miter;stroke-miterlimit:4;stroke-dasharray:none;stroke-opacity:1"
     d="M 1.3229166,23.81251 C 5.2916664,16.75695 9.2604162,9.7014 13.229166,2.64584 c 3.96875,7.05556 7.937499,14.11111 11.906249,21.16667 -7.937499,0 -15.8749989,0 -23.8124984,0 z"
     id="path3715" />
  <g
     transform="translate(0,-270.54166)"
     style="stroke:#00fe00;stroke-opacity:1"
     id="g2081">
    <path
       style="fill:#000000;fill-opacity:1;fill-rule:evenodd;stroke:#00fe00;stroke-width:1;stroke-linecap:butt;stroke-linejoin:miter;stroke-miterlimit:4;stroke-dasharray:none;stroke-opacity:1"
       d="M 48.888672,48.626953 C 43.286229,48.576284 37.354854,49.045899 35.029297,50.25 c -0.453342,0.563441 -0.723438,1.457869 -0.865235,2.509766 l -3,-0.03906 -0.05859,5.878906 3.25,0.04102 c 0.01531,0.09956 0.02683,0.204878 0.04297,0.302734 0.513185,3.110892 2.408958,9.121431 3.955078,9.236329 1.657666,0.123288 0.910246,-6.905589 2.966796,-7.072266 2.056555,-0.166488 4.568941,24.173795 6.941407,23.998047 2.37247,-0.175635 2.827988,-23.712575 5.191406,-24.041016 2.363414,-0.328403 4.196943,10.185873 5.783203,10.242188 1.658563,0.05881 2.734882,-8.164965 2.75,-11.273438 0.0016,-0.332155 0.01835,-0.681542 0.03711,-1.035156 l 5.541015,0.07227 0.05859,-5.878906 -5.576172,-0.07227 c -0.184782,-1.101173 -0.545997,-2.13295 -1.273437,-2.986329 -1.00794,-0.882746 -6.282324,-1.45519 -11.884766,-1.505859 z"
       transform="matrix(0.26458333,0,0,0.26458333,0,270.54166)"
       id="path4616" />
  </g>
</svg>
