<?xml version="1.0" encoding="UTF-8" standalone="no"?>
<svg
   xmlns:dc="http://purl.org/dc/elements/1.1/"
   xmlns:cc="http://creativecommons.org/ns#"
   xmlns:rdf="http://www.w3.org/1999/02/22-rdf-syntax-ns#"
   xmlns:svg="http://www.w3.org/2000/svg"
   xmlns="http://www.w3.org/2000/svg"
   id="svg8"
   version="1.1"
   viewBox="0 0 26.458333 26.458332"
   height="100"
   width="100">
  <defs
     id="defs2" />
  <metadata
     id="metadata5">
    <rdf:RDF>
      <cc:Work
         rdf:about="">
        <dc:format>image/svg+xml</dc:format>
        <dc:type
           rdf:resource="http://purl.org/dc/dcmitype/StillImage" />
        <dc:title></dc:title>
      </cc:Work>
    </rdf:RDF>
  </metadata>
  <g
     transform="matrix(1.11649,0,0,1.11649,-0.49394392,-304.80522)"
     id="layer1"
     style="fill:#000000;fill-opacity:1;stroke:#00ff00;stroke-width:0.26458332;stroke-linecap:round;stroke-miterlimit:4;stroke-dasharray:none;stroke-opacity:1">
    <path
       id="path914"
       d="m 12.576239,281.99846 c -1.208234,0.31676 -2.408311,0.86211 -3.3455881,1.68774 -0.7125022,0.62764 -1.271215,1.46797 -1.5935793,2.36109 -0.3427781,0.94967 -0.4752444,2.01982 -0.2995945,3.01406 0.1672811,0.94688 0.568461,1.80475 1.2279619,2.50447 0.7704837,0.81749 1.713643,1.27278 2.826415,1.4266 1.236595,0.17094 2.338074,-0.13655 3.383795,-0.81836 0.752305,-0.4905 1.614516,-1.6739 1.841484,-2.54283 0.28908,-1.1067 0.191247,-1.80899 -0.353809,-2.8146 -0.315606,-0.58227 -0.828848,-0.95275 -1.42957,-1.23166 -0.683119,-0.31717 -1.544549,-0.36896 -2.279829,-0.20583 -0.741792,0.16458 -1.845485,1.12855 -1.845485,1.12855 0,0 0.375553,-0.80134 0.67595,-1.11575 0.741148,-0.7757 1.714995,-1.31038 2.673991,-1.79138 0.580451,-0.29113 1.836895,-0.64883 1.836895,-0.64883 0,0 -1.833712,0.19071 -2.695569,0.49336 -1.070762,0.376 -2.148329,0.73126 -2.996931,1.61543 -0.6418225,0.66871 -1.0846234,1.66692 -1.1418663,2.59203 -0.059171,0.95629 0.1520302,1.92594 0.9240679,2.49334 0.6614084,0.4861 1.5944124,0.53775 2.3421254,0.19915 0.527629,-0.23896 0.875475,-0.66578 1.086542,-1.20516 0.09873,-0.2523 0.02373,-0.34599 0.02373,-0.34599 0,0 -0.27971,0.35968 -0.853965,0.4558 -0.622408,0.10418 -1.111944,-0.1865 -1.352528,-0.59321 -0.24278,-0.41043 -0.325992,-0.96181 0.0042,-1.47403 0.27405,-0.42512 0.849312,-0.78269 1.563331,-0.56751 0.701967,0.21154 0.968249,0.88102 1.083528,1.44941 0.07851,0.38711 0.01666,0.99566 -0.139826,1.34625 -0.252642,0.56602 -0.653344,1.0305 -1.197043,1.32814 -0.657967,0.3602 -1.521941,0.39574 -2.231316,0.15192 -0.4857887,-0.16698 -0.8988092,-0.49812 -1.2071512,-0.89383 -0.4231969,-0.54312 -0.6418105,-1.19119 -0.6843626,-1.8784 -0.060026,-0.96942 0.1980985,-1.98608 0.667714,-2.83628 0.416321,-0.7537 1.0941938,-1.36606 1.8131838,-1.83984 1.110485,-0.73175 1.867019,-0.97305 3.715973,-1.45232 0.811667,-0.21052 2.433545,-0.19566 2.433545,-0.19566 0,0 -3.031564,-0.17466 -4.476433,0.20413 z"
       style="fill:#000000;fill-opacity:1;stroke:#00ff00;stroke-width:0.26458332;stroke-linecap:round;stroke-linejoin:miter;stroke-miterlimit:4;stroke-dasharray:none;stroke-opacity:1" />
  </g>
</svg>
