<?xml version="1.0" encoding="UTF-8" standalone="no"?>
<svg
   xmlns:dc="http://purl.org/dc/elements/1.1/"
   xmlns:cc="http://creativecommons.org/ns#"
   xmlns:rdf="http://www.w3.org/1999/02/22-rdf-syntax-ns#"
   xmlns:svg="http://www.w3.org/2000/svg"
   xmlns="http://www.w3.org/2000/svg"
   width="100"
   height="100"
   viewBox="0 0 26.458333 26.458332"
   version="1.1"
   id="svg8">
  <defs
     id="defs2" />
  <metadata
     id="metadata5">
    <rdf:RDF>
      <cc:Work
         rdf:about="">
        <dc:format>image/svg+xml</dc:format>
        <dc:type
           rdf:resource="http://purl.org/dc/dcmitype/StillImage" />
        <dc:title></dc:title>
      </cc:Work>
    </rdf:RDF>
  </metadata>
  <path
     id="path3715"
     d="M 1.3229166,23.8125 C 5.2916664,16.75694 9.2604162,9.70139 13.229166,2.64583 c 3.96875,7.05556 7.937499,14.11111 11.906249,21.16667 -7.937499,0 -15.8749989,0 -23.8124984,0 z"
     style="fill:none;fill-rule:evenodd;stroke:none;stroke-width:1.32291663;stroke-linecap:butt;stroke-linejoin:miter;stroke-miterlimit:4;stroke-dasharray:none;stroke-opacity:1" />
  <path
     id="path42"
     d="m 9.2611531,17.10641 c 2.6458329,10e-6 5.2916669,10e-6 7.9374999,0 0.986043,0 1.514271,-0.13572 1.356325,-1.10903 -0.199788,-1.23115 -0.461318,-2.61593 -1.643573,-3.01334 -1.590186,-0.53452 -2.358585,0.15363 -2.358585,0.15363 0,0 -0.423829,-1.02449 -2.178112,-0.78839 -1.635513,0.22012 -1.790638,2.1113 -1.790638,2.1113 0,0 0.101929,-0.84811 -1.3563256,-0.50113 -1.0402935,0.24753 -1.2895067,1.96881 -1.2895079,2.59244 -1.2e-6,0.62363 0.6992869,0.55452 1.3229166,0.55452 z"
     style="fill:#000000;fill-opacity:1;stroke:#00f900;stroke-width:0.26458332px;stroke-linecap:butt;stroke-linejoin:miter;stroke-opacity:1" />
  <path
     id="path46"
     d="M 11.906986,17.10642 10.58407,21.07517"
     style="fill:none;stroke:#000000;stroke-width:0.5648854;stroke-linecap:butt;stroke-linejoin:miter;stroke-miterlimit:4;stroke-dasharray:0.5648854,0.5648854;stroke-dashoffset:0;stroke-opacity:1" />
  <path
     id="path48"
     d="m 13.229903,17.10642 -1.322917,3.96875"
     style="fill:none;stroke:#000000;stroke-width:0.5648854;stroke-linecap:butt;stroke-linejoin:miter;stroke-miterlimit:4;stroke-dasharray:0.5648854,0.5648854;stroke-dashoffset:0;stroke-opacity:1" />
  <path
     id="path50"
     d="m 14.552819,17.10642 -1.322916,3.96875"
     style="fill:none;stroke:#000000;stroke-width:0.5648854;stroke-linecap:butt;stroke-linejoin:miter;stroke-miterlimit:4;stroke-dasharray:0.5648854,0.5648854;stroke-dashoffset:0;stroke-opacity:1" />
  <path
     id="path46-3"
     d="M 10.617248,17.15745 9.2943318,21.1262"
     style="fill:none;stroke:#000000;stroke-width:0.5648854;stroke-linecap:butt;stroke-linejoin:miter;stroke-miterlimit:4;stroke-dasharray:0.5648854,0.5648854;stroke-dashoffset:0;stroke-opacity:1" />
  <path
     id="path46-5"
     d="m 9.2611531,17.10641 -1.322916,3.96875"
     style="fill:none;stroke:#000000;stroke-width:0.5648854;stroke-linecap:butt;stroke-linejoin:miter;stroke-miterlimit:4;stroke-dasharray:0.5648854,0.5648854;stroke-dashoffset:0;stroke-opacity:1" />
  <path
     id="path46-6"
     d="M 15.929229,17.15745 14.606313,21.1262"
     style="fill:none;stroke:#000000;stroke-width:0.5648854;stroke-linecap:butt;stroke-linejoin:miter;stroke-miterlimit:4;stroke-dasharray:0.5648854,0.5648854;stroke-dashoffset:0;stroke-opacity:1" />
  <path
     id="path46-2"
     d="M 17.399212,17.12405 16.076296,21.0928"
     style="fill:none;stroke:#000000;stroke-width:0.5648854;stroke-linecap:butt;stroke-linejoin:miter;stroke-miterlimit:4;stroke-dasharray:0.5648854,0.5648854;stroke-dashoffset:0;stroke-opacity:1" />
</svg>
