<?xml version="1.0" encoding="UTF-8" standalone="no"?>
<svg
   xmlns:dc="http://purl.org/dc/elements/1.1/"
   xmlns:cc="http://creativecommons.org/ns#"
   xmlns:rdf="http://www.w3.org/1999/02/22-rdf-syntax-ns#"
   xmlns:svg="http://www.w3.org/2000/svg"
   xmlns="http://www.w3.org/2000/svg"
   id="svg8"
   version="1.1"
   viewBox="0 0 26.458333 26.458332"
   height="100"
   width="100">
  <defs
     id="defs2" />
  <metadata
     id="metadata5">
    <rdf:RDF>
      <cc:Work
         rdf:about="">
        <dc:format>image/svg+xml</dc:format>
        <dc:type
           rdf:resource="http://purl.org/dc/dcmitype/StillImage" />
        <dc:title></dc:title>
      </cc:Work>
    </rdf:RDF>
  </metadata>
  <path
     style="fill:none;fill-rule:evenodd;stroke:none;stroke-width:1.32291663;stroke-linecap:butt;stroke-linejoin:miter;stroke-miterlimit:4;stroke-dasharray:none;stroke-opacity:1"
     d="M 1.3229166,23.8125 C 5.2916664,16.75694 9.2604162,9.70139 13.229166,2.64583 c 3.96875,7.05556 7.937499,14.11111 11.906249,21.16667 -7.937499,0 -15.8749989,0 -23.8124984,0 z"
     id="path3715" />
  <g
     transform="translate(0,-270.54166)"
     id="layer1">
    <path
       id="path6185"
       d="m 15.025929,292.79929 c 1.356289,-0.41744 2.42642,-1.48031 2.832579,-2.39789 0.33473,-0.76066 0.138787,-1.82396 0.138787,-1.82396 l -0.271023,0.29425 c -0.178808,0.19414 -0.135676,0.16517 -0.135676,0.16517 0,0 -0.535246,-1.06587 -0.592921,-1.62054 -0.06033,-0.58016 0.279415,-1.75869 0.224667,-2.33936 -0.06206,-0.65819 -0.630335,-1.28626 -0.630335,-1.28626 0,0 0.18431,0.57115 -0.135071,0.98613 -0.176765,0.2297 -0.395462,0.21904 -0.395462,0.21904 0,0 -0.495332,-0.64845 -0.585308,-1.02903 -0.184862,-0.78192 0.306454,-1.61636 0.135072,-2.40104 -0.143505,-0.65707 -0.409146,-1.36548 -0.9455,-1.80081 -0.419051,-0.34012 -1.575829,-0.47162 -1.575829,-0.47162 0,0 0.708811,0.73378 0.810428,1.20052 0.210611,0.96737 0,1.45777 0,1.45777 l -1.260664,-0.68599 c 0,0 0.306469,0.93284 0.315165,1.41489 0.009,0.49337 0.07382,1.08876 -0.270142,1.45779 -0.447551,0.48016 -1.284843,0.72369 -1.93602,0.55738 -0.317911,-0.0812 -0.575805,-0.38725 -0.675353,-0.68602 -0.1970722,-0.59144 0.135071,-1.54352 0.135071,-1.54352 0,0 -0.7704099,0.80195 -0.9905205,1.45777 -0.5277283,1.57238 0.062157,2.00789 -0.068204,2.54141 -0.1594044,0.65247 -0.7394983,0.48673 -0.7394983,0.48673 0.029853,2.54963 0.5497271,4.3731 2.1133818,5.63279 0.63844,0.51432 2.435819,0.35756 2.435819,0.35756 v -0.83322 h -1.745457 l 1.074128,-2.36082 h -0.67133 l 1.074128,-2.22195 h -0.537065 l 1.074128,-2.22194 1.074127,2.22194 h -0.537064 l 1.074127,2.22195 h -0.671329 l 1.074126,2.36082 h -1.745455 v 0.83322 c 0,0 1.03959,0.005 1.529493,-0.14316 z"
       style="fill:#000000;fill-opacity:1;stroke:#00fa00;stroke-width:0.26458333;stroke-linecap:butt;stroke-linejoin:miter;stroke-miterlimit:4;stroke-dasharray:none;stroke-opacity:1" />
  </g>
</svg>
