<?xml version="1.0" encoding="UTF-8" standalone="no"?>
<svg
   xmlns:dc="http://purl.org/dc/elements/1.1/"
   xmlns:cc="http://creativecommons.org/ns#"
   xmlns:rdf="http://www.w3.org/1999/02/22-rdf-syntax-ns#"
   xmlns:svg="http://www.w3.org/2000/svg"
   xmlns="http://www.w3.org/2000/svg"
   width="100"
   height="100"
   viewBox="0 0 26.458333 26.458332"
   version="1.1"
   id="svg8">
  <defs
     id="defs2" />
  <metadata
     id="metadata5">
    <rdf:RDF>
      <cc:Work
         rdf:about="">
        <dc:format>image/svg+xml</dc:format>
        <dc:type
           rdf:resource="http://purl.org/dc/dcmitype/StillImage" />
        <dc:title></dc:title>
      </cc:Work>
    </rdf:RDF>
  </metadata>
  <g
     id="layer2"
     style="display:inline;stroke:none;stroke-opacity:1;fill:none">
    <path
       transform="translate(0,-270.54167)"
       style="fill:none;fill-rule:evenodd;stroke:none;stroke-width:1.32291663;stroke-linecap:butt;stroke-linejoin:miter;stroke-miterlimit:4;stroke-dasharray:none;stroke-opacity:1"
       d="m 1.3229166,294.35417 c 3.9687498,-7.05556 7.9374996,-14.11111 11.9062494,-21.16667 3.96875,7.05556 7.937499,14.11111 11.906249,21.16667 -7.937499,0 -15.8749989,0 -23.8124984,0 z"
       id="path3715" />
  </g>
  <path
     id="path42"
     d="m 9.2604158,17.19791 c 2.6458332,10e-6 5.2916672,10e-6 7.9375002,0 0.986043,0 1.514271,-0.13572 1.356325,-1.10903 -0.199788,-1.23115 -0.461318,-2.61593 -1.643573,-3.01334 -1.590186,-0.53452 -2.358585,0.15363 -2.358585,0.15363 0,0 -0.423829,-1.02449 -2.178112,-0.78839 -1.635513,0.22012 -1.790638,2.1113 -1.790638,2.1113 0,0 0.101929,-0.84811 -1.3563259,-0.50113 -1.0402935,0.24753 -1.2895067,1.96881 -1.2895079,2.59244 -1.2e-6,0.62363 0.6992869,0.55452 1.3229166,0.55452 z"
     style="fill:#000000;fill-opacity:1;stroke:#00fb00;stroke-width:0.26458332px;stroke-linecap:butt;stroke-linejoin:miter;stroke-opacity:1" />
  <path
     id="path46"
     d="m 11.906249,17.19792 -1.322916,3.96875"
     style="fill:none;stroke:#000000;stroke-width:0.565;stroke-linecap:butt;stroke-linejoin:miter;stroke-miterlimit:4;stroke-dasharray:none;stroke-opacity:1" />
  <path
     id="path48"
     d="m 13.229166,17.19792 -1.322917,3.96875"
     style="fill:none;stroke:#000000;stroke-width:0.565;stroke-linecap:butt;stroke-linejoin:miter;stroke-miterlimit:4;stroke-dasharray:none;stroke-opacity:1" />
  <path
     id="path50"
     d="m 14.552082,17.19792 -1.322916,3.96875"
     style="fill:none;stroke:#000000;stroke-width:0.565;stroke-linecap:butt;stroke-linejoin:miter;stroke-miterlimit:4;stroke-dasharray:none;stroke-opacity:1" />
</svg>
