<?xml version="1.0" encoding="UTF-8" standalone="no"?>
<svg
   xmlns:dc="http://purl.org/dc/elements/1.1/"
   xmlns:cc="http://creativecommons.org/ns#"
   xmlns:rdf="http://www.w3.org/1999/02/22-rdf-syntax-ns#"
   xmlns:svg="http://www.w3.org/2000/svg"
   xmlns="http://www.w3.org/2000/svg"
   width="100"
   height="100"
   viewBox="0 0 26.458333 26.458332"
   version="1.1"
   id="svg8">
  <defs
     id="defs2" />
  <metadata
     id="metadata5">
    <rdf:RDF>
      <cc:Work
         rdf:about="">
        <dc:format>image/svg+xml</dc:format>
        <dc:type
           rdf:resource="http://purl.org/dc/dcmitype/StillImage" />
        <dc:title></dc:title>
      </cc:Work>
    </rdf:RDF>
  </metadata>
  <path
     id="path3715"
     d="M 1.3229166,23.8125 C 5.2916664,16.75694 9.2604162,9.70139 13.229166,2.64583 c 3.96875,7.05556 7.937499,14.11111 11.906249,21.16667 -7.937499,0 -15.8749989,0 -23.8124984,0 z"
     style="fill:none;fill-rule:evenodd;stroke:none;stroke-width:1.00012493;stroke-linecap:butt;stroke-linejoin:miter;stroke-miterlimit:4;stroke-dasharray:none;stroke-opacity:1" />
  <path
     id="path1055"
     transform="scale(0.26458332)"
     d="M 50.779297 42.496094 L 33.699219 47.314453 L 33.439453 47.263672 L 27.498047 81.910156 C 29.268133 82.035826 31.039085 82.132618 32.810547 82.236328 L 36.904297 57.933594 L 38.113281 61.777344 L 65.794922 72.767578 L 66.666016 71.992188 C 66.666016 71.992188 67.460299 71.28709 68.363281 70.318359 C 69.26626 69.349666 70.313173 68.173568 70.925781 66.730469 C 71.480616 65.423432 71.771975 63.876062 71.996094 62.558594 C 72.22022 61.241126 72.335938 60.173828 72.335938 60.173828 L 72.453125 59.119141 L 50.779297 42.496094 z M 50.390625 46.957031 L 54.412109 50.044922 C 52.816331 51.078635 50.504884 52.575842 49.503906 53.914062 C 48.310006 55.510195 47.583875 57.674049 46.986328 59.576172 C 46.806026 60.150114 46.693483 60.579623 46.558594 61.0625 L 41.839844 59.1875 C 41.954935 58.684674 42.068692 58.174649 42.246094 57.525391 C 42.725141 55.772068 43.481791 53.675668 44.136719 52.673828 C 44.755242 51.727623 46.664925 49.912995 48.34375 48.533203 C 48.994615 47.998294 49.731736 47.44456 50.390625 46.957031 z M 42.484375 48.761719 C 41.915249 49.3646 41.380921 49.976902 40.96875 50.607422 C 40.375286 51.515264 39.903922 52.558108 39.511719 53.619141 L 38.349609 49.927734 L 42.484375 48.761719 z M 57.460938 52.384766 L 60.386719 54.630859 C 60.201112 54.76146 60.070884 54.842408 59.875 54.984375 C 58.462844 56.007871 56.873553 57.197651 55.822266 58.572266 C 54.804458 59.903113 54.132727 61.586348 53.599609 63.023438 C 53.559453 63.131666 53.433846 63.466164 53.326172 63.75 L 49.951172 62.410156 C 50.204706 61.77235 50.469803 61.107778 50.595703 60.707031 C 51.146324 58.954275 52.002427 56.886031 52.529297 56.181641 C 53.086532 55.436658 54.632419 54.197046 55.984375 53.302734 C 56.553257 52.926422 57.035616 52.637973 57.460938 52.384766 z M 63.537109 57.046875 L 65.980469 58.923828 C 64.666466 60.05573 63.015934 61.668956 62.421875 62.986328 C 61.765474 64.441968 61.892163 65.949605 62.193359 67.273438 L 56.863281 65.15625 C 56.957603 64.878921 57.024352 64.656593 57.142578 64.337891 C 57.620734 63.048958 58.333238 61.513701 58.826172 60.869141 C 59.285626 60.268385 60.791947 58.993748 62.095703 58.048828 C 62.497736 57.757458 62.988055 57.427315 63.537109 57.046875 z M 68.242188 62.087891 C 68.036021 63.252126 67.714054 64.611635 67.441406 65.253906 C 67.266818 65.665207 66.710016 66.406187 66.119141 67.111328 C 65.786193 66.01946 65.573713 65.236189 65.869141 64.537109 C 66.378787 63.476018 67.161588 62.924366 68.222656 62.101562 C 68.229972 62.09589 68.234883 62.09354 68.242188 62.087891 z "
     style="color:#000000;font-style:normal;font-variant:normal;font-weight:normal;font-stretch:normal;font-size:medium;line-height:normal;font-family:sans-serif;font-variant-ligatures:normal;font-variant-position:normal;font-variant-caps:normal;font-variant-numeric:normal;font-variant-alternates:normal;font-feature-settings:normal;text-indent:0;text-align:start;text-decoration:none;text-decoration-line:none;text-decoration-style:solid;text-decoration-color:#000000;letter-spacing:normal;word-spacing:normal;text-transform:none;writing-mode:lr-tb;direction:ltr;text-orientation:mixed;dominant-baseline:auto;baseline-shift:baseline;text-anchor:start;white-space:normal;shape-padding:0;clip-rule:nonzero;display:inline;overflow:visible;visibility:visible;opacity:1;isolation:auto;mix-blend-mode:normal;color-interpolation:sRGB;color-interpolation-filters:linearRGB;solid-color:#000000;solid-opacity:1;vector-effect:none;fill:#000000;fill-opacity:1;fill-rule:evenodd;stroke:#00fc00;stroke-width:1;stroke-linecap:round;stroke-linejoin:miter;stroke-miterlimit:4;stroke-dasharray:none;stroke-dashoffset:0;stroke-opacity:1;color-rendering:auto;image-rendering:auto;shape-rendering:auto;text-rendering:auto;enable-background:accumulate" />
</svg>
