<?xml version="1.0" encoding="UTF-8" standalone="no"?>
<svg
   xmlns:dc="http://purl.org/dc/elements/1.1/"
   xmlns:cc="http://creativecommons.org/ns#"
   xmlns:rdf="http://www.w3.org/1999/02/22-rdf-syntax-ns#"
   xmlns:svg="http://www.w3.org/2000/svg"
   xmlns="http://www.w3.org/2000/svg"
   width="100"
   height="100"
   viewBox="0 0 26.458333 26.458332"
   version="1.1"
   id="svg8">
  <defs
     id="defs2" />
  <metadata
     id="metadata5">
    <rdf:RDF>
      <cc:Work
         rdf:about="">
        <dc:format>image/svg+xml</dc:format>
        <dc:type
           rdf:resource="http://purl.org/dc/dcmitype/StillImage" />
        <dc:title></dc:title>
      </cc:Work>
    </rdf:RDF>
  </metadata>
  <path
     id="path3715"
     d="M 1.3229166,23.8125 C 5.2916664,16.75694 9.2604162,9.70139 13.229166,2.64583 c 3.96875,7.05556 7.937499,14.11111 11.906249,21.16667 -7.937499,0 -15.8749989,0 -23.8124984,0 z"
     style="fill:none;fill-rule:evenodd;stroke:none;stroke-width:1.32291663;stroke-linecap:butt;stroke-linejoin:miter;stroke-miterlimit:4;stroke-dasharray:none;stroke-opacity:1" />
  <path
     id="path827"
     d="m 16.792969,19.90365 0.0059,1 2,-0.0117 -0.0059,-1 z m -3,0.0176 0.0059,1 2,-0.0117 -0.0059,-1 z m -3,0.0195 0.0059,1 2,-0.0137 -0.0059,-1 z m -3.0000002,0.0176 0.00586,1 2,-0.0117 -0.00586,-1 z"
     style="color:#000000;font-style:normal;font-variant:normal;font-weight:normal;font-stretch:normal;font-size:medium;line-height:normal;font-family:sans-serif;font-variant-ligatures:normal;font-variant-position:normal;font-variant-caps:normal;font-variant-numeric:normal;font-variant-alternates:normal;font-feature-settings:normal;text-indent:0;text-align:start;text-decoration:none;text-decoration-line:none;text-decoration-style:solid;text-decoration-color:#000000;letter-spacing:normal;word-spacing:normal;text-transform:none;writing-mode:lr-tb;direction:ltr;text-orientation:mixed;dominant-baseline:auto;baseline-shift:baseline;text-anchor:start;white-space:normal;shape-padding:0;clip-rule:nonzero;display:inline;overflow:visible;visibility:visible;opacity:1;isolation:auto;mix-blend-mode:normal;color-interpolation:sRGB;color-interpolation-filters:linearRGB;solid-color:#000000;solid-opacity:1;vector-effect:none;fill:#000000;fill-opacity:1;fill-rule:evenodd;stroke:none;stroke-width:1;stroke-linecap:butt;stroke-linejoin:miter;stroke-miterlimit:4;stroke-dasharray:2.00000006, 1.00000003;stroke-dashoffset:0;stroke-opacity:1;color-rendering:auto;image-rendering:auto;shape-rendering:auto;text-rendering:auto;enable-background:accumulate" />
  <path
     id="path829"
     d="m 13.234375,14.41146 -0.449219,0.33008 c 0,0 -1.017567,0.64844 -1.671875,0.64844 -0.654307,0 -1.6738279,-0.64844 -1.6738279,-0.64844 L 9.0175781,14.431 8.5820312,14.72006 c 0,0 -0.4374776,0.28302 -0.8984374,0.44922 l 0.5078124,1.41211 c 0.4222085,-0.15223 0.541574,-0.25236 0.7597657,-0.38086 0.4018889,0.26964 1.1219541,0.68945 2.1621091,0.68945 0.997037,0 1.691722,-0.38426 2.115235,-0.66016 0.42446,0.27783 1.115371,0.66016 2.117187,0.66016 1.043996,0 1.758029,-0.41517 2.162109,-0.6875 0.216304,0.12262 0.346248,0.21739 0.742188,0.37109 l 0.542969,-1.39843 c -0.453221,-0.17595 -0.9375,-0.4668 -0.9375,-0.4668 l -0.433594,-0.26953 -0.410156,0.30664 c 0,0 -0.979562,0.64453 -1.666016,0.64453 -0.686454,0 -1.666015,-0.64453 -1.666015,-0.64453 z"
     style="color:#000000;font-style:normal;font-variant:normal;font-weight:normal;font-stretch:normal;font-size:medium;line-height:normal;font-family:sans-serif;font-variant-ligatures:normal;font-variant-position:normal;font-variant-caps:normal;font-variant-numeric:normal;font-variant-alternates:normal;font-feature-settings:normal;text-indent:0;text-align:start;text-decoration:none;text-decoration-line:none;text-decoration-style:solid;text-decoration-color:#000000;letter-spacing:normal;word-spacing:normal;text-transform:none;writing-mode:lr-tb;direction:ltr;text-orientation:mixed;dominant-baseline:auto;baseline-shift:baseline;text-anchor:start;white-space:normal;shape-padding:0;clip-rule:nonzero;display:inline;overflow:visible;visibility:visible;opacity:1;isolation:auto;mix-blend-mode:normal;color-interpolation:sRGB;color-interpolation-filters:linearRGB;solid-color:#000000;solid-opacity:1;vector-effect:none;fill:#000000;fill-opacity:1;fill-rule:evenodd;stroke:#00fe00;stroke-width:0.26458332;stroke-linecap:butt;stroke-linejoin:miter;stroke-miterlimit:4;stroke-dasharray:none;stroke-dashoffset:0;stroke-opacity:1;color-rendering:auto;image-rendering:auto;shape-rendering:auto;text-rendering:auto;enable-background:accumulate" />
</svg>
