<?xml version="1.0" encoding="UTF-8" standalone="no"?>
<svg
   xmlns:dc="http://purl.org/dc/elements/1.1/"
   xmlns:cc="http://creativecommons.org/ns#"
   xmlns:rdf="http://www.w3.org/1999/02/22-rdf-syntax-ns#"
   xmlns:svg="http://www.w3.org/2000/svg"
   xmlns="http://www.w3.org/2000/svg"
   id="svg8"
   version="1.1"
   viewBox="0 0 26.458333 26.458332"
   height="100"
   width="100">
  <defs
     id="defs2" />
  <metadata
     id="metadata5">
    <rdf:RDF>
      <cc:Work
         rdf:about="">
        <dc:format>image/svg+xml</dc:format>
        <dc:type
           rdf:resource="http://purl.org/dc/dcmitype/StillImage" />
        <dc:title></dc:title>
      </cc:Work>
    </rdf:RDF>
  </metadata>
  <g
     style="display:inline;stroke:none;stroke-opacity:1"
     id="layer2">
    <path
       id="path3715"
       d="m 1.3229166,294.35417 c 3.9687498,-7.05556 7.9374996,-14.11111 11.9062494,-21.16667 3.96875,7.05556 7.937499,14.11111 11.906249,21.16667 -7.937499,0 -15.8749989,0 -23.8124984,0 z"
       style="fill:none;fill-rule:evenodd;stroke:none;stroke-width:1.32291663;stroke-linecap:butt;stroke-linejoin:miter;stroke-miterlimit:4;stroke-dasharray:none;stroke-opacity:1"
       transform="translate(0,-270.54167)" />
  </g>
  <path
     id="path868"
     d="m 6.4042733,20.90386 c -0.194136,-0.361833 -0.295217,-0.757573 -0.327866,-1.123491 -0.07494,-0.840637 0.288461,-1.675576 0.964066,-2.247035 0.295382,-0.249848 0.551639,-0.405018 0.753282,-0.499217 0.201658,-0.09417 0.415251,-0.136555 0.415251,-0.136555 a 0.750075,0.750075 0 1 1 0.236032,1.481054 c 0,0 0.06047,-0.02033 -0.01488,0.01482 -0.07541,0.03527 -0.220341,0.115449 -0.421728,0.285803 -0.317937,0.26893 -0.466018,0.663497 -0.438861,0.968196 0.03685,0.413479 0.16936,0.707513 0.471248,0.881961 0.392433,0.226786 0.900283,0.370248 1.5796622,0.05526 0.318941,-0.147876 0.3818095,-0.257418 0.4337395,-0.382202 0.05195,-0.124792 0.06868,-0.314059 0.0633,-0.564072 -3.3e-5,-0.0015 -0.06625,-0.321387 -0.1488365,-0.558622 -0.08258,-0.237236 -0.163689,-0.429166 -0.163689,-0.429166 l -7.84e-4,-0.0018 -1.5729512,-3.722333 a 0.750075,0.750075 0 1 1 1.3815382,-0.584268 l 1.5714205,3.71874 c 0,0 0.09916,0.234306 0.20067,0.525928 0.10151,0.291622 0.222213,0.60457 0.230891,1.02044 0.0063,0.294267 0.0128,0.715851 -0.176433,1.170602 -0.189246,0.454755 -0.59845,0.892945 -1.188668,1.166596 -1.1389377,0.528065 -2.2413707,0.298721 -2.9603077,-0.116742 -0.40475,-0.233944 -0.69197,-0.562114 -0.886097,-0.923951 z"
     style="color:#000000;font-style:normal;font-variant:normal;font-weight:normal;font-stretch:normal;font-size:medium;line-height:normal;font-family:sans-serif;font-variant-ligatures:normal;font-variant-position:normal;font-variant-caps:normal;font-variant-numeric:normal;font-variant-alternates:normal;font-feature-settings:normal;text-indent:0;text-align:start;text-decoration:none;text-decoration-line:none;text-decoration-style:solid;text-decoration-color:#000000;letter-spacing:normal;word-spacing:normal;text-transform:none;writing-mode:lr-tb;direction:ltr;text-orientation:mixed;dominant-baseline:auto;baseline-shift:baseline;text-anchor:start;white-space:normal;shape-padding:0;clip-rule:nonzero;display:inline;overflow:visible;visibility:visible;opacity:1;isolation:auto;mix-blend-mode:normal;color-interpolation:sRGB;color-interpolation-filters:linearRGB;solid-color:#000000;solid-opacity:1;vector-effect:none;fill:#000000;fill-opacity:1;fill-rule:evenodd;stroke:#00ff00;stroke-width:0.26458332;stroke-linecap:round;stroke-linejoin:miter;stroke-miterlimit:4;stroke-dasharray:none;stroke-dashoffset:0;stroke-opacity:1;color-rendering:auto;image-rendering:auto;shape-rendering:auto;text-rendering:auto;enable-background:accumulate" />
  <path
     id="path872"
     d="M 11.613559,16.247955 C 10.753718,14.226939 9.9082995,12.229573 9.9082995,12.229573 a 0.750075,0.750075 0 1 1 1.3815375,-0.584268 c 0,0 0.845336,1.994619 1.703729,4.014788 0.429455,1.009976 0.863214,2.025641 1.195176,2.800555 0.165959,0.387467 0.307144,0.715911 0.409369,0.95078 0.05099,0.117485 0.09125,0.212039 0.120485,0.277733 0.02108,0.04745 0.02339,0.05235 0.0199,0.04672 0.563582,0.9398 1.49352,1.027464 1.976331,0.911667 0.763936,-0.191463 1.315149,-0.733811 1.501897,-1.094102 0.18055,-0.348327 0.187704,-0.884058 -3.63e-4,-1.241774 -0.163612,-0.311356 -0.529803,-0.532267 -1.276545,-0.634446 -0.443075,-0.06063 -1.223653,0.39176 -1.223653,0.39176 a 0.750075,0.750075 0 1 1 -0.878791,-1.215738 c 0,0 1.006148,-0.839607 2.305983,-0.661754 0.996149,0.136309 1.9369,0.541515 2.399397,1.421406 0.438197,0.833464 0.42805,1.818625 0.0066,2.631791 -0.414889,0.800442 -1.267684,1.558996 -2.475297,1.859046 l -0.0037,0.0016 -0.0018,7.84e-4 c -1.087233,0.262028 -2.706087,-0.06961 -3.621276,-1.603598 l -0.0064,-0.01 -0.0046,-0.01078 c -0.06935,-0.124773 -0.05667,-0.110067 -0.08881,-0.182957 -0.03214,-0.07289 -0.07382,-0.170738 -0.125843,-0.29031 -0.104128,-0.239182 -0.245129,-0.567629 -0.411746,-0.956207 -0.333233,-0.777156 -0.767246,-1.793444 -1.196707,-2.804149 z"
     style="color:#000000;font-style:normal;font-variant:normal;font-weight:normal;font-stretch:normal;font-size:medium;line-height:normal;font-family:sans-serif;font-variant-ligatures:normal;font-variant-position:normal;font-variant-caps:normal;font-variant-numeric:normal;font-variant-alternates:normal;font-feature-settings:normal;text-indent:0;text-align:start;text-decoration:none;text-decoration-line:none;text-decoration-style:solid;text-decoration-color:#000000;letter-spacing:normal;word-spacing:normal;text-transform:none;writing-mode:lr-tb;direction:ltr;text-orientation:mixed;dominant-baseline:auto;baseline-shift:baseline;text-anchor:start;white-space:normal;shape-padding:0;clip-rule:nonzero;display:inline;overflow:visible;visibility:visible;opacity:1;isolation:auto;mix-blend-mode:normal;color-interpolation:sRGB;color-interpolation-filters:linearRGB;solid-color:#000000;solid-opacity:1;vector-effect:none;fill:#000000;fill-opacity:1;fill-rule:evenodd;stroke:#00ff00;stroke-width:0.26458332;stroke-linecap:round;stroke-linejoin:miter;stroke-miterlimit:4;stroke-dasharray:none;stroke-dashoffset:0;stroke-opacity:1;color-rendering:auto;image-rendering:auto;shape-rendering:auto;text-rendering:auto;enable-background:accumulate" />
  <path
     id="path874"
     d="m 12.272227,11.937871 c -0.292362,-0.704176 -0.545122,-1.334525 -0.545122,-1.334525 a 0.75014306,0.75014306 0 1 1 1.391487,-0.560912 c 0,0 0.250391,0.625298 0.538998,1.32015 0.288424,0.69493 0.641563,1.503507 0.743587,1.695802 0.149811,0.282786 0.579337,0.503487 0.778158,0.441269 0.216863,-0.06786 0.28606,-0.128814 0.341264,-0.20057 0.05521,-0.07171 0.114614,-0.198195 0.148725,-0.458224 0.02583,-0.196905 -0.271351,-0.557383 -0.271351,-0.557383 a 0.750075,0.750075 0 1 1 0.99186,-1.125221 c 0,0 0.918801,0.710904 0.765832,1.877391 -0.05532,0.421683 -0.179916,0.833217 -0.446509,1.179504 -0.266602,0.346291 -0.656322,0.582409 -1.081509,0.715464 -1.085309,0.339626 -2.092259,-0.299238 -2.55306,-1.169128 -0.203365,-0.384008 -0.509833,-1.119512 -0.802286,-1.823648 z"
     style="color:#000000;font-style:normal;font-variant:normal;font-weight:normal;font-stretch:normal;font-size:medium;line-height:normal;font-family:sans-serif;font-variant-ligatures:normal;font-variant-position:normal;font-variant-caps:normal;font-variant-numeric:normal;font-variant-alternates:normal;font-feature-settings:normal;text-indent:0;text-align:start;text-decoration:none;text-decoration-line:none;text-decoration-style:solid;text-decoration-color:#000000;letter-spacing:normal;word-spacing:normal;text-transform:none;writing-mode:lr-tb;direction:ltr;text-orientation:mixed;dominant-baseline:auto;baseline-shift:baseline;text-anchor:start;white-space:normal;shape-padding:0;clip-rule:nonzero;display:inline;overflow:visible;visibility:visible;opacity:1;isolation:auto;mix-blend-mode:normal;color-interpolation:sRGB;color-interpolation-filters:linearRGB;solid-color:#000000;solid-opacity:1;vector-effect:none;fill:#000000;fill-opacity:1;fill-rule:evenodd;stroke:#00ff00;stroke-width:0.26458332;stroke-linecap:round;stroke-linejoin:miter;stroke-miterlimit:4;stroke-dasharray:none;stroke-dashoffset:0;stroke-opacity:1;color-rendering:auto;image-rendering:auto;shape-rendering:auto;text-rendering:auto;enable-background:accumulate" />
</svg>
